<svg xmlns="http://www.w3.org/2000/svg" viewBox="0 0 428.68 189.81">
  <defs>
    <style>
      .cls-1 {
        font-size: 5.67px;
      }

      .cls-1, .cls-2, .cls-7 {
        fill: #fff;
      }

      .cls-1, .cls-2 {
        font-family: IBMPlexMono, IBM Plex Mono;
      }

      .cls-2 {
        font-size: 8.5px;
      }

      .cls-3 {
        fill: #65a3ce;
      }

      .cls-4 {
        fill: #4ea7b9;
      }

      .cls-5 {
        fill: #45a9b2;
      }

      .cls-6 {
        fill: #9594c8;
      }

      .cls-8 {
        fill: #7f9dd1;
      }

      .cls-9 {
        fill: none;
        stroke: #ca99c5;
        stroke-miterlimit: 10;
        stroke-width: 0.1px;
      }

      .cls-10 {
        fill: #fccb99;
      }

      .cls-11 {
        fill: #b668a9;
      }

      .cls-12 {
        fill: #d76b6e;
      }

      .cls-13 {
        fill: #ea9b83;
      }

      .cls-14 {
        fill: #ca99c5;
      }

      .cls-15 {
        fill: #896ba9;
      }

      .cls-16 {
        fill: #db99a1;
      }
    </style>
  </defs>
  <g id="Layer_2" data-name="Layer 2">
    <g id="Layer_1-2" data-name="Layer 1">
      <text class="cls-1" transform="translate(14.95 143.88)">Identity COLOR = <tspan x="0" y="7">denotes separate </tspan><tspan x="0" y="14">question types</tspan></text>
      <text class="cls-2" transform="translate(0.44 7.99)">Questions about <tspan x="0" y="11">IDENTITY</tspan></text>
      <g>
        <text class="cls-1" transform="translate(25.98 38.99) scale(0.96 1)">what best describes <tspan x="0" y="7">where you are in </tspan><tspan x="0" y="14">your career?</tspan></text>
        <polygon class="cls-3" points="12.8 43.85 10.48 43.15 13.55 31.95 15.88 32.64 12.8 43.85"/>
        <text class="cls-1" transform="translate(0 39.59) scale(0.96 1)">1</text>
      </g>
      <g>
        <text class="cls-1" transform="translate(25.98 69.47) scale(0.96 1)">do your colleagues <tspan x="0" y="7">see you as an </tspan><tspan x="0" y="14">ethicist?</tspan></text>
        <polygon class="cls-4" points="13.56 70.22 11.27 69.42 12.79 64.65 15.09 65.45 13.56 70.22"/>
        <text class="cls-1" transform="translate(0 69.47) scale(0.96 1)">2</text>
      </g>
      <g>
        <text class="cls-1" transform="translate(25.98 100.27) scale(0.96 1)">do you see yourself <tspan x="0" y="7">as an ethicist?</tspan></text>
        <polygon class="cls-4" points="13.81 100.29 11.47 99.64 12.55 95.45 14.88 96.11 13.81 100.29"/>
        <text class="cls-1" transform="translate(0 100.27) scale(0.96 1)">3</text>
      </g>
      <g>
        <text class="cls-1" transform="translate(123.74 37.17)">are you paid for <tspan x="0" y="7">your work on </tspan><tspan x="0" y="14">AI/data ethics?</tspan></text>
        <rect class="cls-5" x="106.82" y="32.95" width="7.12" height="2.53" transform="translate(-4.26 19.68) rotate(-10)"/>
        <text class="cls-1" transform="translate(96.62 37.17)">4</text>
      </g>
      <g>
        <text class="cls-1" transform="translate(123.77 70.74)">which fields are <tspan x="0" y="7">closest to your </tspan><tspan x="0" y="14">education or training?</tspan></text>
        <rect class="cls-6" x="109.14" y="64.51" width="2.53" height="7.12" transform="translate(16.07 157.09) rotate(-75)"/>
        <text class="cls-1" transform="translate(96.64 70.74)">5</text>
      </g>
      <g>
        <g>
          <path class="cls-7" d="M124.3,103.62h.45v1.74h0a.82.82,0,0,1,.83-.54,1,1,0,0,1,1,1.12v1.88h-.46V106c0-.54-.24-.8-.69-.8s-.73.18-.73.56v2h-.45Z"/>
          <path class="cls-7" d="M127.52,106.35c0-.93.5-1.53,1.33-1.53s1.33.6,1.33,1.53-.51,1.53-1.33,1.53S127.52,107.28,127.52,106.35Zm2.17.21v-.42c0-.63-.34-.93-.84-.93s-.85.3-.85.93v.42c0,.63.34.93.85.93S129.69,107.19,129.69,106.56Z"/>
          <path class="cls-7" d="M130.72,104.89h.4l.33,2.53h.06l.5-2.53h.49l.5,2.53h.06l.33-2.53h.39l-.45,2.93h-.59l-.46-2.46h-.05l-.47,2.46h-.59Z"/>
          <path class="cls-7" d="M137.66,107.82v-2.93h.42v.34h0a.56.56,0,0,1,.56-.41.48.48,0,0,1,.53.46h0a.64.64,0,0,1,.64-.46c.47,0,.6.35.6,1v2H140v-2c0-.5-.09-.67-.36-.67s-.41.16-.41.47v2.16h-.42v-2c0-.5-.08-.67-.35-.67s-.41.16-.41.47v2.16Z"/>
          <path class="cls-7" d="M143.56,107.82a.48.48,0,0,1-.52-.48h0a.85.85,0,0,1-.88.54.88.88,0,0,1-1-.89c0-.54.38-.85,1.26-.85H143v-.29a.61.61,0,0,0-.7-.65.82.82,0,0,0-.78.44l-.31-.23a1.17,1.17,0,0,1,1.12-.59c.69,0,1.12.37,1.12,1v1.61h.41v.4ZM143,107v-.48h-.62c-.54,0-.79.16-.79.44V107c0,.3.23.46.61.46S143,107.26,143,107Z"/>
          <path class="cls-7" d="M144.71,107.82v-2.93h.45v.47h0a.82.82,0,0,1,.83-.54,1,1,0,0,1,1,1.12v1.88h-.46V106c0-.54-.24-.8-.69-.8s-.73.18-.73.56v2Z"/>
          <path class="cls-7" d="M150.2,104.89h.46l-1.46,3.57a.67.67,0,0,1-.74.49H148v-.39h.69l.32-.8-1.18-2.87h.47l.49,1.22.44,1.11h0l.44-1.11Z"/>
          <path class="cls-7" d="M157,104.89h.45L156,108.46a.69.69,0,0,1-.75.49h-.43v-.39h.68l.33-.8-1.18-2.87h.46l.5,1.22.43,1.11h0l.43-1.11Z"/>
          <path class="cls-7" d="M158.14,106.36a1.37,1.37,0,0,1,1.34-1.54,1.3,1.3,0,0,1,1.3,1.43v.21h-2.17v.14a.85.85,0,0,0,.9.89.88.88,0,0,0,.84-.51l.34.23a1.24,1.24,0,0,1-1.18.67A1.36,1.36,0,0,1,158.14,106.36Zm.47-.28v0h1.68v-.06a.79.79,0,0,0-.81-.87A.86.86,0,0,0,158.61,106.08Z"/>
          <path class="cls-7" d="M164,107.82a.48.48,0,0,1-.52-.48h0a.85.85,0,0,1-.88.54.89.89,0,0,1-1-.89c0-.54.38-.85,1.26-.85h.63v-.29a.61.61,0,0,0-.7-.65.82.82,0,0,0-.78.44l-.31-.23a1.17,1.17,0,0,1,1.12-.59c.69,0,1.12.37,1.12,1v1.61h.41v.4Zm-.55-.86v-.48h-.63c-.54,0-.78.16-.78.44V107c0,.3.23.46.61.46S163.42,107.26,163.42,107Z"/>
          <path class="cls-7" d="M165,107.43h.85v-2.16H165v-.38h1.31v.73h0a.93.93,0,0,1,1-.73h.41v.45h-.55a.8.8,0,0,0-.87.82v1.27h1.13v.39H165Z"/>
          <path class="cls-7" d="M168.34,107.31l.31-.27a1.33,1.33,0,0,0,1.06.46c.45,0,.78-.16.78-.5s-.25-.39-.52-.43l-.46-.07c-.41-.06-1-.17-1-.81s.5-.87,1.18-.87a1.53,1.53,0,0,1,1.19.47l-.3.28a1.07,1.07,0,0,0-.91-.37c-.46,0-.72.16-.72.46s.26.39.52.43l.46.07c.42.06,1,.17,1,.81s-.49.91-1.24.91A1.73,1.73,0,0,1,168.34,107.31Z"/>
          <path class="cls-7" d="M124.3,110.62h.45v1.74h0a.82.82,0,0,1,.83-.54,1,1,0,0,1,1,1.12v1.88h-.46V113c0-.54-.24-.8-.69-.8s-.73.18-.73.56v2h-.45Z"/>
          <path class="cls-7" d="M130,114.82a.48.48,0,0,1-.52-.48h0a.84.84,0,0,1-.88.54.88.88,0,0,1-1-.89c0-.54.38-.85,1.26-.85h.62v-.29a.61.61,0,0,0-.69-.65.84.84,0,0,0-.79.44l-.3-.23a1.16,1.16,0,0,1,1.11-.59c.69,0,1.13.37,1.13,1v1.61h.41v.4Zm-.55-.86v-.48h-.62c-.54,0-.78.16-.78.44V114c0,.3.23.46.6.46S129.4,114.26,129.4,114Z"/>
          <path class="cls-7" d="M132,114.82l-1.05-2.93h.46l.42,1.22.45,1.33h0l.45-1.33.42-1.22h.45l-1.05,2.93Z"/>
          <path class="cls-7" d="M134.33,113.36a1.37,1.37,0,0,1,1.34-1.54,1.3,1.3,0,0,1,1.3,1.43v.21h-2.16v.14a.84.84,0,0,0,.89.89.88.88,0,0,0,.84-.51l.34.23a1.24,1.24,0,0,1-1.18.67A1.36,1.36,0,0,1,134.33,113.36Zm.48-.28v0h1.67v-.06a.79.79,0,0,0-.81-.87A.85.85,0,0,0,134.81,113.08Z"/>
          <path class="cls-7" d="M143.4,111.89h.45l-1.45,3.57a.68.68,0,0,1-.75.49h-.43v-.39h.68l.33-.8-1.18-2.87h.47l.49,1.22.44,1.11h0l.44-1.11Z"/>
          <path class="cls-7" d="M144.53,113.35c0-.93.5-1.53,1.32-1.53s1.33.6,1.33,1.53-.5,1.53-1.33,1.53S144.53,114.28,144.53,113.35Zm2.17.21v-.42c0-.63-.34-.93-.85-.93s-.84.3-.84.93v.42c0,.63.34.93.84.93S146.7,114.19,146.7,113.56Z"/>
          <path class="cls-7" d="M150,114.34h0a.84.84,0,0,1-.84.54,1,1,0,0,1-1-1.11v-1.88h.45v1.8c0,.53.24.79.69.79s.73-.18.73-.56v-2h.45v2.93H150Z"/>
          <path class="cls-7" d="M154.9,110.62h.45v1.74h0a1,1,0,0,1,.9-.54c.72,0,1.15.57,1.15,1.53s-.43,1.53-1.15,1.53a1,1,0,0,1-.9-.54h0v.48h-.45Zm2,3v-.5a.79.79,0,0,0-.83-.88c-.4,0-.75.21-.75.6v1.06c0,.39.35.6.75.6A.79.79,0,0,0,156.93,113.6Z"/>
          <path class="cls-7" d="M158.14,113.36a1.37,1.37,0,0,1,1.34-1.54,1.3,1.3,0,0,1,1.3,1.43v.21h-2.17v.14a.85.85,0,0,0,.9.89.88.88,0,0,0,.84-.51l.34.23a1.24,1.24,0,0,1-1.18.67A1.36,1.36,0,0,1,158.14,113.36Zm.47-.28v0h1.68v-.06a.79.79,0,0,0-.81-.87A.86.86,0,0,0,158.61,113.08Z"/>
          <path class="cls-7" d="M161.54,113.36a1.37,1.37,0,0,1,1.34-1.54,1.3,1.3,0,0,1,1.3,1.43v.21H162v.14a.84.84,0,0,0,.89.89.88.88,0,0,0,.84-.51l.34.23a1.24,1.24,0,0,1-1.18.67A1.36,1.36,0,0,1,161.54,113.36Zm.48-.28v0h1.68v-.06a.8.8,0,0,0-.82-.87A.85.85,0,0,0,162,113.08Z"/>
          <path class="cls-7" d="M165.12,114.82v-2.93h.45v.47h0a.83.83,0,0,1,.84-.54,1,1,0,0,1,1,1.12v1.88H167V113c0-.54-.24-.8-.69-.8s-.73.18-.73.56v2Z"/>
          <path class="cls-7" d="M172,114.43H173v-2.16H172v-.38h1.51v2.54h1v.39H172Zm.93-3.48v-.09c0-.17.1-.29.36-.29s.35.12.35.29V111c0,.16-.09.29-.35.29S172.89,111.11,172.89,111Z"/>
          <path class="cls-7" d="M175.32,114.82v-2.93h.45v.47h0a.82.82,0,0,1,.83-.54,1,1,0,0,1,1,1.12v1.88h-.46V113c0-.54-.24-.8-.69-.8s-.73.18-.73.56v2Z"/>
          <path class="cls-7" d="M125.59,121.82a.6.6,0,0,1-.65-.67v-1.88h-1v-.38h.72c.19,0,.27-.07.27-.27v-.77h.44v1h1.33v.38H125.4v2.16h1.33v.39Z"/>
          <path class="cls-7" d="M127.7,117.62h.46v1.74h0a.82.82,0,0,1,.83-.54,1,1,0,0,1,1,1.12v1.88h-.46V120c0-.54-.24-.8-.69-.8s-.72.18-.72.56v2h-.46Z"/>
          <path class="cls-7" d="M130.93,120.36a1.37,1.37,0,0,1,1.34-1.54,1.3,1.3,0,0,1,1.3,1.43v.21H131.4v.14a.85.85,0,0,0,.9.89.88.88,0,0,0,.84-.51l.34.23a1.24,1.24,0,0,1-1.18.67A1.36,1.36,0,0,1,130.93,120.36Zm.47-.28v0h1.68v-.06a.8.8,0,0,0-.81-.87A.86.86,0,0,0,131.4,120.08Z"/>
          <path class="cls-7" d="M137.82,121.43h1v-2.16h-1.05v-.38h1.05v-.6a.59.59,0,0,1,.64-.67h1V118h-1.18v.89h1.18v.38h-1.18v2.16h1.05v.39h-2.49Z"/>
          <path class="cls-7" d="M141.35,121.43h1.06v-2.16h-1.06v-.38h1.51v2.54h1v.39h-2.5Zm.93-3.48v-.09c0-.17.09-.29.36-.29s.35.12.35.29V118c0,.16-.09.29-.35.29S142.28,118.11,142.28,118Z"/>
          <path class="cls-7" d="M144.53,120.36a1.37,1.37,0,0,1,1.35-1.54,1.3,1.3,0,0,1,1.3,1.43v.21H145v.14a.84.84,0,0,0,.9.89.89.89,0,0,0,.84-.51l.33.23a1.23,1.23,0,0,1-1.17.67A1.36,1.36,0,0,1,144.53,120.36Zm.48-.28v0h1.68v-.06a.8.8,0,0,0-.81-.87A.86.86,0,0,0,145,120.08Z"/>
          <path class="cls-7" d="M148,121.43h1V118h-1v-.38h1.47v3.81h1v.39H148Z"/>
          <path class="cls-7" d="M153.37,121.34h0a.94.94,0,0,1-.9.54c-.71,0-1.14-.57-1.14-1.53s.43-1.53,1.14-1.53a1,1,0,0,1,.9.54h0v-1.74h.45v4.2h-.45Zm0-.46v-1.06c0-.39-.35-.6-.75-.6a.8.8,0,0,0-.84.88v.5a.8.8,0,0,0,.84.88C153,121.48,153.37,121.27,153.37,120.88Z"/>
          <path class="cls-7" d="M158.13,120.35c0-.93.51-1.53,1.33-1.53s1.33.6,1.33,1.53-.51,1.53-1.33,1.53S158.13,121.28,158.13,120.35Zm2.18.21v-.42c0-.63-.34-.93-.85-.93s-.85.3-.85.93v.42c0,.63.34.93.85.93S160.31,121.19,160.31,120.56Z"/>
          <path class="cls-7" d="M161.63,121.43h1v-2.16h-1.05v-.38h1.05v-.6a.59.59,0,0,1,.64-.67h1V118h-1.18v.89h1.18v.38h-1.18v2.16h1.05v.39h-2.49Z"/>
          <path class="cls-7" d="M170.69,121.82l-.33-1.13H169l-.34,1.13h-.49l1.21-4H170l1.22,4Zm-1-3.46h-.05l-.56,1.91h1.16Z"/>
          <path class="cls-7" d="M171.84,121.82v-.38h1v-3.21h-1v-.38h2.45v.38h-1v3.21h1v.38Z"/>
          <path class="cls-7" d="M124.12,127.36a1.37,1.37,0,0,1,1.35-1.54,1.3,1.3,0,0,1,1.3,1.43v.21H124.6v.14a.85.85,0,0,0,.9.89.89.89,0,0,0,.84-.51l.33.23a1.21,1.21,0,0,1-1.17.67A1.36,1.36,0,0,1,124.12,127.36Zm.48-.28v0h1.68v-.06a.8.8,0,0,0-.81-.87A.86.86,0,0,0,124.6,127.08Z"/>
          <path class="cls-7" d="M129,128.82a.6.6,0,0,1-.65-.67v-1.88h-1v-.38h.72c.2,0,.27-.07.27-.27v-.77h.44v1h1.33v.38H128.8v2.16h1.33v.39Z"/>
          <path class="cls-7" d="M131.1,124.62h.46v1.74h0a.82.82,0,0,1,.83-.54,1,1,0,0,1,1,1.12v1.88H133V127c0-.54-.25-.8-.7-.8s-.72.18-.72.56v2h-.46Z"/>
          <path class="cls-7" d="M134.55,128.43h1v-2.16h-1v-.38h1.51v2.54h1v.39h-2.5Zm.93-3.48v-.09c0-.17.09-.29.35-.29s.36.12.36.29V125c0,.16-.1.29-.36.29S135.48,125.11,135.48,125Z"/>
          <path class="cls-7" d="M137.83,127.35c0-.93.49-1.53,1.32-1.53a1.08,1.08,0,0,1,1.08.67l-.36.2a.71.71,0,0,0-.72-.48.81.81,0,0,0-.84.89v.5A.86.86,0,0,0,140,128l.33.22a1.15,1.15,0,0,1-1.13.68C138.31,128.88,137.83,128.28,137.83,127.35Z"/>
          <path class="cls-7" d="M141.13,128.31l.31-.27a1.33,1.33,0,0,0,1.06.46c.45,0,.78-.16.78-.5s-.25-.39-.52-.43l-.46-.07c-.41-.06-1-.17-1-.81s.49-.87,1.18-.87a1.55,1.55,0,0,1,1.19.47l-.3.28a1.07,1.07,0,0,0-.91-.37c-.46,0-.72.16-.72.46s.26.39.52.43l.46.07c.42.06,1,.17,1,.81s-.49.91-1.24.91A1.71,1.71,0,0,1,141.13,128.31Z"/>
          <path class="cls-7" d="M145.51,127.59v-.89c.65,0,1-.27,1-.78v-.08c0-.42-.27-.64-.71-.64a.81.81,0,0,0-.82.66l-.43-.15a1.23,1.23,0,0,1,1.27-.92,1.06,1.06,0,0,1,1.19,1.07A1.2,1.2,0,0,1,146,127v.57Zm-.18.94v-.11c0-.19.12-.34.42-.34s.42.15.42.34v.11c0,.19-.11.34-.42.34S145.33,128.72,145.33,128.53Z"/>
        </g>
        <rect class="cls-8" x="109.26" y="102.61" width="2.24" height="6.07" transform="translate(-39.27 136.47) rotate(-55.39)"/>
        <text class="cls-1" transform="translate(96.62 107.82)">6</text>
      </g>
      <path class="cls-7" d="M16,136.19a15.68,15.68,0,0,1-5.17-1.57c-.09-.38-.14-.71-.19-1.05.73.31,1.49.64,2.25.94.38.14.76.28,1.13.4s.79.25,1.17.35a24,24,0,0,1-.73-3.78c-.34-2.71-.53-5.42-.67-8.14-.07-1.35-.12-2.71-.15-4.07a41.23,41.23,0,0,1,0-4.15l.78.15c-.09,1.22,0,2.65,0,4s.09,2.7.15,4c.14,2.7.33,5.41.67,8.08a24.13,24.13,0,0,0,.69,3.64c.28-.29.55-.54.84-.79s.59-.51.88-.75c.59-.47,1.2-.92,1.82-1.38.05.27.09.54.14.75-.66.47-1.33,1-1.95,1.5-.31.26-.62.58-.91.85A3.75,3.75,0,0,0,16,136.19Z"/>
      <text class="cls-1" transform="translate(241.85 38.22)">how would you <tspan x="0" y="7">define the broad </tspan><tspan x="0" y="14">topic?</tspan></text>
      <rect class="cls-9" x="222.65" y="35.86" width="11.66" height="2.53" transform="translate(129.81 246.52) rotate(-74)"/>
      <text class="cls-1" transform="translate(214.72 38.82)">7</text>
      <text class="cls-1" transform="translate(240.65 68.46)">is there a <tspan x="0" y="7">particular domain </tspan><tspan x="0" y="14">you look at?</tspan></text>
      <rect class="cls-9" x="224.77" y="65.17" width="5.03" height="2.53" transform="translate(92.17 260.89) rotate(-71.5)"/>
      <text class="cls-1" transform="translate(213.53 68.46)">8</text>
      <text class="cls-1" transform="translate(241.85 99.1)">do you collaborate <tspan x="0" y="7">with others in </tspan><tspan x="0" y="14">this work?</tspan></text>
      <rect class="cls-9" x="226.31" y="95.45" width="4.33" height="2.53" transform="matrix(0.26, -0.97, 0.97, 0.26, 75.93, 292.37)"/>
      <text class="cls-1" transform="translate(214.72 99.1)">9</text>
      <text class="cls-1" transform="translate(349.11 40.28)">who else is <tspan x="0" y="7">involved in your </tspan><tspan x="0" y="14">work on this theme?</tspan></text>
      <rect class="cls-9" x="332.18" y="36.06" width="7.12" height="2.53" transform="translate(-1.38 58.86) rotate(-10)"/>
      <text class="cls-1" transform="translate(321.98 40.28)">10</text>
      <text class="cls-1" transform="translate(349.11 69.76)">what outputs is this <tspan x="0" y="7">work producing?</tspan></text>
      <rect class="cls-9" x="334.48" y="63.53" width="2.53" height="7.12" transform="translate(184.04 374.02) rotate(-75)"/>
      <text class="cls-1" transform="translate(321.98 69.76)">11</text>
      <text class="cls-1" transform="translate(349.11 101.51)">who is the audience <tspan x="0" y="7">of your work?</tspan></text>
      <rect class="cls-9" x="334.62" y="96.31" width="2.24" height="6.07" transform="translate(63.26 319.23) rotate(-55.39)"/>
      <text class="cls-1" transform="translate(321.98 101.51)">12</text>
      <text class="cls-2" transform="translate(214.07 7.22)">Questions about <tspan x="0" y="11">work THEMES</tspan></text>
      <text class="cls-1" transform="translate(346.98 137.39)">Theme COLOR = <tspan x="0" y="7">theme bars are colored </tspan><tspan x="0" y="14">according to whether </tspan><tspan x="0" y="21">they are answers about </tspan><tspan x="0" y="28">theme 1, 2, 3 - or </tspan><tspan x="0" y="35">combinations from </tspan><tspan x="0" y="42">multiple themes</tspan></text>
      <g>
        <text class="cls-1" transform="translate(250.94 143.53)">theme 1</text>
        <text class="cls-1" transform="translate(251.94 156.95)">theme 2</text>
        <text class="cls-1" transform="translate(252.94 171.31)">theme 3</text>
        <text class="cls-1" transform="translate(296.94 143.22)">theme 1 + 2</text>
        <text class="cls-1" transform="translate(296.94 157.61)">theme 2 + 3</text>
        <text class="cls-1" transform="translate(270.94 187.6)">theme 1 + 2 + 3</text>
        <rect class="cls-10" x="239.89" y="135.89" width="2.53" height="11.66" transform="translate(-36.44 176.1) rotate(-37.5)"/>
        <rect class="cls-11" x="240.89" y="153.71" width="2.53" height="3.98" transform="translate(-2.34 3.69) rotate(-0.87)"/>
        <rect class="cls-12" x="240.17" y="166.63" width="3.98" height="2.53" transform="translate(-51.68 190.01) rotate(-39.04)"/>
        <text class="cls-1" transform="translate(297.94 170.31)">theme 1 + 3</text>
        <rect class="cls-13" x="286.17" y="166.63" width="3.98" height="2.53" transform="translate(-32.06 74.7) rotate(-14)"/>
        <rect class="cls-14" x="256.33" y="183.74" width="11.66" height="2.53" transform="translate(-56.83 219.65) rotate(-41.41)"/>
        <rect class="cls-15" x="286.97" y="153.96" width="2.53" height="3.98" transform="translate(-38.84 176.44) rotate(-32)"/>
        <rect class="cls-16" x="286.89" y="139.57" width="2.53" height="3.63" transform="translate(-30.98 107.08) rotate(-20)"/>
        <path class="cls-7" d="M235.26,132.39a17.48,17.48,0,0,1-5.36.44c-.23-.34-.42-.68-.62-1a18.31,18.31,0,0,0,4.91,0,14.89,14.89,0,0,1-2-3.29,21.23,21.23,0,0,1-1.42-12.39l.78.15a20.34,20.34,0,0,0,1.36,11.91,14.27,14.27,0,0,0,1.93,3.12,15.61,15.61,0,0,1,2.26-3.92,5,5,0,0,0,.33.55A14.85,14.85,0,0,0,235.26,132.39Z"/>
      </g>
    </g>
  </g>
</svg>
